<?xml version="1.0" encoding="UTF-8" standalone="no"?>
<svg width="31px" height="29px" viewBox="0 0 31 29" version="1.1" xmlns="http://www.w3.org/2000/svg" xmlns:xlink="http://www.w3.org/1999/xlink" xmlns:sketch="http://www.bohemiancoding.com/sketch/ns">
    <!-- Generator: Sketch 3.2.2 (9983) - http://www.bohemiancoding.com/sketch -->
    <title>share-twitter</title>
    <desc>Created with Sketch.</desc>
    <defs>
        <path id="path-1" d="M23.7000008,9.51009663 C23.1225532,9.76619489 22.5014413,9.93938011 21.8499116,10.0173871 C22.5146877,9.61852137 23.0254124,8.98759731 23.2663018,8.23549265 C22.6437181,8.60443114 21.9544115,8.87279464 21.22095,9.01703389 C20.6331996,8.39101592 19.7962194,8 18.8699483,8 C17.0909976,8 15.6490957,9.44190189 15.6490957,11.2208526 C15.6490957,11.4735166 15.6775511,11.7193121 15.7324994,11.9548047 C13.0557329,11.8203777 10.6821632,10.5379239 9.093569,8.58922224 C8.81637453,9.06511364 8.65741699,9.61803077 8.65741699,10.2087248 C8.65741699,11.3263337 9.22603362,12.3119686 10.0904879,12.8899068 C9.56259187,12.8732261 9.06609486,12.7284962 8.63141467,12.4871162 C8.63092406,12.5003627 8.63092406,12.5140998 8.63092406,12.5278369 C8.63092406,14.0884663 9.7411738,15.3900538 11.2144747,15.6858914 C10.9441488,15.7594829 10.6595951,15.7987317 10.3657199,15.7987317 C10.158192,15.7987317 9.95655145,15.7786167 9.75981697,15.7408397 C10.1694761,17.0203498 11.3592046,17.951527 12.7687262,17.9775293 C11.6663262,18.841493 10.2774102,19.3561425 8.76829478,19.3561425 C8.50827164,19.3561425 8.25217338,19.3409336 8,19.3110065 C9.42522116,20.2250123 11.1183152,20.758305 12.9374959,20.758305 C18.8620986,20.758305 22.1015944,15.8502457 22.1015944,11.593716 C22.1015944,11.4538922 22.0986507,11.3150497 22.0922728,11.1771884 C22.721725,10.7228838 23.2677736,10.155739 23.6995102,9.51009663 L23.7000008,9.51009663 Z"></path>
    </defs>
    <g id="Page-1" stroke="none" stroke-width="1" fill="none" fill-rule="evenodd" sketch:type="MSPage">
        <g id="A4" sketch:type="MSArtboardGroup" transform="translate(-253.000000, -591.000000)">
            <g id="share-twitter" sketch:type="MSLayerGroup" transform="translate(253.000000, 591.000000)">
                <g id="Shape">
                    <use fill="#333333" fill-rule="evenodd" sketch:type="MSShapeGroup" xlink:href="#path-1"></use>
                    <use fill="none" xlink:href="#path-1"></use>
                </g>
                <rect id="Rectangle-6" stroke="#979797" sketch:type="MSShapeGroup" x="0" y="0" width="31" height="29"></rect>
            </g>
        </g>
    </g>
</svg>