<?xml version="1.0" encoding="UTF-8" standalone="no"?>
<svg width="31px" height="29px" viewBox="0 0 31 29" version="1.1" xmlns="http://www.w3.org/2000/svg" xmlns:xlink="http://www.w3.org/1999/xlink" xmlns:sketch="http://www.bohemiancoding.com/sketch/ns">
    <!-- Generator: Sketch 3.2.2 (9983) - http://www.bohemiancoding.com/sketch -->
    <title>share-vk</title>
    <desc>Created with Sketch.</desc>
    <defs></defs>
    <g id="Page-1" stroke="none" stroke-width="1" fill="none" fill-rule="evenodd" sketch:type="MSPage">
        <g id="A4" sketch:type="MSArtboardGroup" transform="translate(-213.000000, -591.000000)">
            <g id="share-vk" sketch:type="MSLayerGroup" transform="translate(213.000000, 591.000000)">
                <rect id="Rectangle-5" stroke="#979797" sketch:type="MSShapeGroup" x="0" y="0" width="31" height="29"></rect>
                <path d="M23.8462539,18.5528249 C23.8556039,18.5668183 23.8598539,18.5773133 23.8615539,18.5834354 C24.000104,18.822197 24.0341041,19.0093581 23.966104,19.1475424 C23.8513539,19.375809 23.4629035,19.4903796 23.3311534,19.5 L20.9018509,19.5 C20.7327007,19.5 20.3808004,19.4545216 19.9523999,19.1501662 C19.6251496,18.9149029 19.2995993,18.527462 18.9842489,18.1487668 C18.5133485,17.586409 18.106198,17.0983908 17.6939476,17.0983908 C17.6412476,17.0983908 17.5902475,17.1071366 17.5409475,17.1246283 C17.2289971,17.2260801 16.8328967,17.6834878 16.8328967,18.9017842 C16.8328967,19.283103 16.5404964,19.5 16.3356462,19.5 L15.2229951,19.5 C14.8438947,19.5 12.8701927,19.3635648 11.1200409,17.4648417 C8.97548874,15.1401959 7.04938678,10.476911 7.03068676,10.4358055 C6.91083664,10.1340738 7.16243689,9.96965192 7.43443717,9.96965192 L9.88753967,9.96965192 C10.21649,9.96965192 10.3235901,10.1743047 10.3983902,10.3579675 C10.4850903,10.5687423 10.8063906,11.4118419 11.3333911,12.359017 C12.186792,13.900035 12.7112425,14.5271121 13.130293,14.5271121 C13.2093431,14.5271121 13.2841431,14.5069967 13.3546932,14.4658912 C13.9020938,14.1562883 13.8000937,12.1447437 13.7745936,11.7301907 C13.7745936,11.6497289 13.7737436,10.8319923 13.4932433,10.4366801 C13.2926431,10.1533147 12.9509428,10.043117 12.7443926,10.0028861 C12.7996426,9.92067518 12.9169428,9.794735 13.0673929,9.72039531 C13.4422433,9.52798671 14.119694,9.5 14.7920447,9.5 L15.165195,9.5 C15.8944958,9.51049501 16.083196,9.55859717 16.3483963,9.62768935 C16.8821968,9.75887703 16.8923968,10.114833 16.8456468,11.3270072 C16.8320467,11.6733427 16.8175967,12.0634074 16.8175967,12.5225643 C16.8175967,12.6205178 16.8133467,12.7298408 16.8133467,12.8409131 C16.7971967,13.4627427 16.7759467,14.1632849 17.2026471,14.4510233 C17.2570472,14.4860066 17.3207972,14.5052475 17.3870973,14.5052475 C17.5349975,14.5052475 17.9778479,14.5052475 19.1788991,12.3843799 C19.7058997,11.4476998 20.1139001,10.3430995 20.1419501,10.260014 C20.1657501,10.213661 20.2371502,10.0833479 20.3238503,10.0308728 C20.3901504,9.98889278 20.4785505,9.9818961 20.5244505,9.9818961 L23.4102034,9.9818961 C23.7247038,9.9818961 23.938054,10.0308728 23.979704,10.1533147 C24.0494041,10.3518454 23.966104,10.9579325 22.6486027,12.7910617 C22.4267524,13.0962918 22.2321022,13.3604163 22.0612521,13.5913066 C20.8670009,15.2040406 20.8670009,15.2853769 22.1318021,16.5097953 C22.1318021,16.5097953 23.5062535,17.9065069 23.8462539,18.5528249 Z" id="Shape" fill="#444444" sketch:type="MSShapeGroup"></path>
            </g>
        </g>
    </g>
</svg>